<svg width="271" height="194" viewBox="0 0 271 194" fill="none" xmlns="http://www.w3.org/2000/svg">
<path d="M161.736 63.1086C161.736 67.8236 154.849 70.4954 151.646 69.9453C151.806 70.6526 151.646 72.5858 149.724 74.6604C147.802 76.735 144.919 76.9393 143.718 76.7821C144.279 80.1613 141.844 87.0609 136.271 87.6267" stroke="#FFAF87" stroke-width="3"/>
<path d="M110.806 63.1086C110.806 67.8236 117.692 70.4954 120.896 69.9453C120.735 70.6526 120.896 72.5858 122.817 74.6604C124.739 76.735 127.622 76.9393 128.823 76.7821C128.263 80.1613 130.697 87.0609 136.271 87.6267" stroke="#FFAF87" stroke-width="3"/>
<path d="M266 62.1656C266 87.1553 228.502 82.9386 224.198 100.357C220.355 115.917 268.883 127.233 234.769 158.824C195.85 194.864 185.76 136.192 170.865 147.979C155.97 159.767 158.373 189 134.349 189" stroke="#FFAF87" stroke-width="10"/>
<path d="M5.10034 62.1656C5.10034 87.1553 42.5988 82.9386 46.9019 100.357C50.7458 115.917 2.21747 127.233 36.3314 158.824C75.2502 194.864 85.3402 136.192 100.235 147.979C115.13 159.767 112.727 189 136.751 189" stroke="#FFAF87" stroke-width="10"/>
<path d="M232.847 63.0043C232.847 85.1649 189.124 77.6209 190.565 93.652C192.007 109.683 237.171 127.633 217.472 143.631C197.772 159.63 184.319 109.683 167.502 115.341C149.591 121.367 156.211 159.767 135.07 157.409" stroke="#FFAF87" stroke-width="8"/>
<path d="M38.4938 63.0043C38.4938 85.1649 82.2171 77.6209 80.7757 93.652C79.3343 109.683 34.1694 127.633 53.869 143.631C73.5686 159.63 87.022 109.683 103.839 115.341C121.75 121.367 114.649 159.662 135.791 157.305" stroke="#FFAF87" stroke-width="8"/>
<path d="M200.655 63.3443C200.655 81.733 182.877 77.9609 173.508 85.505C164.139 93.049 181.676 98.2356 176.631 102.715C171.586 107.194 165.58 94.9351 160.295 97.9998C152.164 102.715 156.211 125.583 136.751 126.762" stroke="#FFAF87" stroke-width="4"/>
<path d="M74.0488 63.3443C74.0488 81.733 91.8266 77.9609 101.196 85.505C110.565 93.049 93.0277 98.2356 98.0728 102.715C103.118 107.194 109.124 94.9351 114.409 97.9998C122.54 102.715 117.772 125.583 137.232 126.762" stroke="#FFAF87" stroke-width="4"/>
<path d="M258.868 33.3751C258.868 35.0666 259.711 35.9124 261.399 35.9124C263.15 35.9124 264.61 35.5871 265.778 34.9365L265.292 45.964C262.177 48.5013 258.673 49.77 254.78 49.77C247.642 49.77 243.684 47.1676 242.906 41.9629C239.661 47.1676 234.892 49.77 228.598 49.77C217.956 49.77 212.636 45.1833 212.636 36.01C212.636 34.4486 212.798 32.7245 213.122 30.8378L215.166 19.4199C216.204 13.5646 218.573 8.91288 222.271 5.46476C226.035 1.95157 230.901 0.194977 236.871 0.194977C242.906 0.194977 246.994 1.59375 249.135 4.39128L249.621 1.46362H264.416L258.965 32.204C258.9 32.5944 258.868 32.9847 258.868 33.3751ZM230.058 28.6908C229.928 29.2764 229.863 30.0896 229.863 31.1306C229.863 32.1715 230.35 33.2124 231.323 34.2534C232.296 35.2293 233.919 35.7172 236.19 35.7172C238.526 35.7172 240.537 34.8064 242.224 32.9847L245.144 16.5899C244.43 14.9634 242.743 14.1501 240.083 14.1501C235.087 14.1501 232.167 16.5573 231.323 21.3717L230.058 28.6908Z" fill="#ED6A5E"/>
<path d="M186.39 18.4442C186.39 15.6467 185.027 14.2479 182.302 14.2479C179.641 14.2479 177.435 15.2563 175.683 17.2731L170.233 48.4039H153.686L161.96 1.4638H177.338L176.267 7.22152C180.096 2.47221 184.93 0.0975647 190.77 0.0975647C196.609 0.0975647 200.405 1.52886 202.157 4.39146C203.26 6.21311 203.812 8.295 203.812 10.6371C203.812 12.9793 203.65 15.1587 203.325 17.1756L200.697 32.2042C200.632 32.5946 200.6 32.9524 200.6 33.2777C200.6 35.0343 201.573 35.9126 203.52 35.9126C205.012 35.9126 206.343 35.5873 207.511 34.9367L207.024 45.9642C203.974 48.5015 200.503 49.7701 196.609 49.7701C187.785 49.7701 183.372 46.0618 183.372 38.645C183.372 37.3439 183.502 35.9451 183.762 34.4487L186.098 21.4695C186.292 20.2984 186.39 19.29 186.39 18.4442Z" fill="#ED6A5E"/>
<path d="M118.13 27.4224C117.935 28.5934 117.838 29.7645 117.838 30.9356C117.838 34.0584 119.59 35.6198 123.094 35.6198C125.949 35.6198 128.317 34.6114 130.199 32.5946L135.65 1.46381H152.196L143.631 49.9653C142.203 58.2278 138.926 64.7663 133.8 69.5806C128.739 74.395 122.932 76.8022 116.378 76.8022C109.824 76.8022 105.088 75.5986 102.168 73.1914C99.3127 70.7842 97.8851 67.6289 97.8851 63.7253C97.8851 58.1953 101.292 53.2833 108.105 48.9894C104.406 48.0786 102.07 46.2244 101.097 43.4269C100.513 41.8655 100.221 40.1089 100.221 38.1571C100.221 36.2053 100.383 34.221 100.708 32.2042L106.158 1.46381H122.705L118.13 27.4224ZM118.617 62.847C122.834 62.847 125.592 59.0085 126.89 51.3316L127.863 45.6714C118.844 49.9003 114.334 54.1616 114.334 58.4555C114.334 59.7567 114.691 60.7977 115.405 61.5784C116.183 62.4241 117.254 62.847 118.617 62.847Z" fill="#ED6A5E"/>
<path d="M65.4974 49.7702C52.0008 49.7702 45.2525 45.0859 45.2525 35.7174C45.2525 34.4162 45.3823 33.0175 45.6418 31.5211L47.6858 19.4201C48.7889 13.1745 51.6439 8.39262 56.2509 5.07461C60.9228 1.69154 67.0871 0 74.7439 0C87.7862 0 94.3074 4.94449 94.3074 14.8335C94.3074 16.2648 94.1777 17.8262 93.9181 19.5177L92.7501 26.4465H63.0641L62.6748 28.691C62.545 29.4717 62.4801 30.1874 62.4801 30.838C62.4801 34.4162 64.589 36.2054 68.8067 36.2054C70.364 36.2054 71.6942 35.7174 72.7972 34.7415C73.9003 33.7656 74.5492 32.6271 74.7439 31.3259L90.9008 31.5211C88.7596 43.6872 80.2917 49.7702 65.4974 49.7702ZM77.1771 20.4936C77.4367 19.3876 77.5665 18.3792 77.5665 17.4684C77.5665 16.4925 77.1447 15.5166 76.3012 14.5407C75.4576 13.5648 74.095 13.0769 72.2132 13.0769C70.3964 13.0769 68.7093 13.6949 67.152 14.931C65.6596 16.1672 64.6214 18.0214 64.0374 20.4936H77.1771Z" fill="#ED6A5E"/>
<path d="M14.2495 76.4118C12.4975 76.4118 10.8753 76.0865 9.38293 75.4359C7.82563 74.8504 3.86021 72.7401 3.24014 70.2533L2 66.2122V62.1656H9.07411C10.371 62.5542 10.5185 62.5542 12.2055 62.5542C13.8926 62.5542 15.8392 61.3181 16.2934 58.8459L26.4159 1.46381H42.9622L32.4504 61.0904C31.6069 65.7747 29.79 69.483 26.9999 72.2155C24.2746 75.013 20.0245 76.4118 14.2495 76.4118Z" fill="#ED6A5E"/>
</svg>
